<svg xmlns="http://www.w3.org/2000/svg" viewBox="0 0 512 512" role="img" aria-labelledby="title desc">
  <title id="title">Motor Ride Weather logo</title>
  <desc id="desc">A motorcycle in front of a warm sky with a sun.</desc>
  <defs>
    <linearGradient id="sky" x1="0" x2="0" y1="0" y2="1">
      <stop offset="0%" stop-color="#fef3c7" />
      <stop offset="100%" stop-color="#fde68a" />
    </linearGradient>
  </defs>

  <rect x="24" y="24" width="464" height="464" rx="120" fill="url(#sky)" />
  <circle cx="376" cy="148" r="54" fill="#f59e0b" />
  <path d="M104 370h304" stroke="#b45309" stroke-width="14" stroke-linecap="round" opacity="0.65" />

  <g transform="translate(96 132) scale(13.5)">
    <path
      fill="#111827"
      d="m17.42 10l-4.01-4H9v2h3.59l2 2H6.5C4 10 2 12 2 14.5S4 19 6.5 19c2.22 0 4.06-1.62 4.42-3.73L13.04 14c-.04.17-.04.33-.04.5c0 2.5 2 4.5 4.5 4.5s4.5-2 4.5-4.5s-2-4.5-4.5-4.5m-8.66 5.26C8.5 16.27 7.58 17 6.47 17a2.5 2.5 0 0 1 0-5c1.12 0 2.03.74 2.37 1.75H6v1.5zM17.47 17a2.5 2.5 0 0 1 0-5a2.5 2.5 0 0 1 2.5 2.5a2.5 2.5 0 0 1-2.5 2.5"
    />
  </g>
</svg>
